<svg width="246" height="106" viewBox="0 0 246 106" fill="none" xmlns="http://www.w3.org/2000/svg">
<line y1="-1" x2="245.002" y2="-1" transform="matrix(0.999986 0.00520064 -0.00741777 0.999972 0.00108337 19.2727)" stroke="#016FB9" stroke-width="2"/>
<line y1="-1" x2="245.002" y2="-1" transform="matrix(0.999986 0.00520064 -0.00741777 0.999972 0.00108337 86.7273)" stroke="#016FB9" stroke-width="2"/>
<path d="M63.1902 4.264C63.7502 4.264 64.1942 4.396 64.5222 4.66C64.8582 4.924 65.0262 5.268 65.0262 5.692C65.0262 6.108 64.8382 6.316 64.4622 6.316C64.2382 6.316 64.0622 6.248 63.9342 6.112C63.8142 5.968 63.7542 5.8 63.7542 5.608C63.7542 5.416 63.7862 5.256 63.8502 5.128C63.6582 4.976 63.4302 4.9 63.1662 4.9C62.9022 4.9 62.6822 4.964 62.5062 5.092C62.3382 5.22 62.2542 5.408 62.2542 5.656C62.2542 5.904 62.3502 6.12 62.5422 6.304C62.7422 6.488 62.9822 6.64 63.2622 6.76C63.5422 6.872 63.8222 6.992 64.1022 7.12C64.3822 7.24 64.6182 7.416 64.8102 7.648C65.0102 7.872 65.1102 8.152 65.1102 8.488C65.1102 9.008 64.9342 9.42 64.5822 9.724C64.2382 10.028 63.7662 10.18 63.1662 10.18C62.5662 10.18 62.0742 10.052 61.6902 9.796C61.3142 9.54 61.1262 9.204 61.1262 8.788V8.74C61.1262 8.308 61.3142 8.092 61.6902 8.092C61.9142 8.092 62.0862 8.164 62.2062 8.308C62.3342 8.444 62.3982 8.604 62.3982 8.788C62.3982 8.972 62.3782 9.116 62.3382 9.22C62.4982 9.324 62.7502 9.376 63.0942 9.376C63.4462 9.376 63.7102 9.316 63.8862 9.196C64.0702 9.076 64.1622 8.912 64.1622 8.704C64.1622 8.488 64.0622 8.296 63.8622 8.128C63.6702 7.96 63.4342 7.82 63.1542 7.708C62.8742 7.588 62.5942 7.464 62.3142 7.336C62.0342 7.2 61.7942 7.008 61.5942 6.76C61.4022 6.512 61.3062 6.216 61.3062 5.872C61.3062 5.376 61.4782 4.984 61.8222 4.696C62.1742 4.408 62.6302 4.264 63.1902 4.264ZM68.8341 7.336C68.4421 7.336 68.0781 7.316 67.7421 7.276C67.7581 8.636 68.2101 9.316 69.0981 9.316C69.5461 9.316 70.0421 9.068 70.5861 8.572C70.8181 8.812 70.9661 9.128 71.0301 9.52C70.3741 9.96 69.6781 10.18 68.9421 10.18C68.2061 10.18 67.6581 9.928 67.2981 9.424C66.9381 8.912 66.7581 8.164 66.7581 7.18C66.7581 6.196 66.9581 5.464 67.3581 4.984C67.7661 4.504 68.3421 4.264 69.0861 4.264C69.6381 4.264 70.0941 4.432 70.4541 4.768C70.8141 5.104 70.9941 5.516 70.9941 6.004C71.0021 6.492 70.9621 6.84 70.8741 7.048C70.2741 7.24 69.5941 7.336 68.8341 7.336ZM69.0021 4.936C68.2581 4.936 67.8421 5.484 67.7541 6.58C68.1141 6.62 68.5101 6.64 68.9421 6.64C69.3741 6.64 69.7101 6.6 69.9501 6.52C69.9821 6.32 69.9981 6.172 69.9981 6.076C69.9981 5.724 69.9061 5.448 69.7221 5.248C69.5461 5.04 69.3061 4.936 69.0021 4.936ZM73.0841 9.304C73.1561 8.504 73.1921 7.772 73.1921 7.108C73.1921 6.436 73.1601 5.772 73.0961 5.116L72.6521 5.08C72.6281 4.952 72.6161 4.82 72.6161 4.684C72.6161 4.548 72.6201 4.456 72.6281 4.408C73.0361 4.4 73.5321 4.364 74.1161 4.3L74.1761 4.36C74.1681 4.408 74.1441 4.644 74.1041 5.068C74.2881 4.836 74.5001 4.644 74.7401 4.492C74.9881 4.34 75.2281 4.264 75.4601 4.264C75.7001 4.264 75.9081 4.348 76.0841 4.516C76.2601 4.684 76.3481 4.904 76.3481 5.176C76.3481 5.624 76.1601 5.848 75.7841 5.848C75.5681 5.848 75.3961 5.78 75.2681 5.644C75.1401 5.5 75.0761 5.312 75.0761 5.08C75.0601 5.072 75.0321 5.068 74.9921 5.068C74.6961 5.068 74.3921 5.292 74.0801 5.74C74.0721 5.964 74.0681 6.468 74.0681 7.252C74.0681 8.028 74.1041 8.712 74.1761 9.304L74.6201 9.34C74.6361 9.516 74.6441 9.64 74.6441 9.712C74.6441 9.776 74.6321 9.876 74.6081 10.012C74.3841 10.004 74.0561 10 73.6241 10C73.1921 10 72.8761 10.004 72.6761 10.012C72.6521 9.892 72.6401 9.78 72.6401 9.676C72.6401 9.564 72.6481 9.452 72.6641 9.34L73.0841 9.304ZM80.5747 5.068C80.5587 4.988 80.5507 4.884 80.5507 4.756C80.5507 4.62 80.5627 4.5 80.5867 4.396C80.8267 4.404 81.1587 4.408 81.5827 4.408C82.0147 4.408 82.3467 4.404 82.5787 4.396C82.6027 4.5 82.6147 4.612 82.6147 4.732C82.6147 4.852 82.6067 4.964 82.5907 5.068L82.1947 5.104C81.1867 7.448 80.5667 9.08 80.3347 10C80.1267 10.056 79.9387 10.084 79.7707 10.084C79.6107 10.084 79.5027 10.08 79.4467 10.072C78.9907 8.456 78.3707 6.8 77.5867 5.104L77.1907 5.068C77.1747 4.972 77.1667 4.864 77.1667 4.744C77.1667 4.616 77.1787 4.5 77.2027 4.396C77.4347 4.404 77.7787 4.408 78.2347 4.408C78.6987 4.408 79.0507 4.404 79.2907 4.396C79.3147 4.5 79.3267 4.616 79.3267 4.744C79.3267 4.864 79.3187 4.972 79.3027 5.068L78.8107 5.104C78.9707 6.136 79.3387 7.324 79.9147 8.668H79.9627C80.1707 8.268 80.3827 7.724 80.5987 7.036C80.8147 6.34 80.9747 5.696 81.0787 5.104L80.5747 5.068ZM84.3679 9.304C84.4399 8.52 84.4759 7.804 84.4759 7.156C84.4759 6.5 84.4439 5.82 84.3799 5.116L83.9359 5.08C83.9119 4.944 83.8999 4.816 83.8999 4.696C83.8999 4.568 83.9039 4.472 83.9119 4.408C84.3759 4.392 84.8719 4.356 85.3999 4.3L85.4599 4.36C85.3879 4.832 85.3519 5.624 85.3519 6.736C85.3519 7.848 85.3879 8.704 85.4599 9.304L85.9039 9.34C85.9199 9.468 85.9279 9.58 85.9279 9.676C85.9279 9.764 85.9159 9.876 85.8919 10.012C85.6119 10.004 85.2879 10 84.9199 10C84.5519 10 84.2319 10.004 83.9599 10.012C83.9359 9.892 83.9239 9.768 83.9239 9.64C83.9239 9.512 83.9319 9.412 83.9479 9.34L84.3679 9.304ZM85.5799 2.644C85.5799 3.14 85.3239 3.388 84.8119 3.388C84.4119 3.388 84.2119 3.184 84.2119 2.776C84.2119 2.272 84.4679 2.02 84.9799 2.02C85.3799 2.02 85.5799 2.228 85.5799 2.644ZM91.0722 6.316C90.8482 6.316 90.6722 6.248 90.5442 6.112C90.4242 5.968 90.3642 5.796 90.3642 5.596C90.3642 5.388 90.3922 5.232 90.4482 5.128C90.2722 4.992 90.0642 4.924 89.8242 4.924C88.9762 4.924 88.5522 5.676 88.5522 7.18C88.5522 7.868 88.6602 8.396 88.8762 8.764C89.0922 9.132 89.3962 9.316 89.7882 9.316C90.1882 9.316 90.6802 9.068 91.2642 8.572C91.4962 8.812 91.6442 9.128 91.7082 9.52C91.0842 9.936 90.4642 10.156 89.8482 10.18L89.8722 10.648C90.6802 10.68 91.0842 10.96 91.0842 11.488C91.0842 12.176 90.6402 12.52 89.7522 12.52C89.3922 12.52 89.0962 12.472 88.8642 12.376C88.8562 12.352 88.8522 12.276 88.8522 12.148C88.8522 12.028 88.9042 11.888 89.0082 11.728C89.1842 11.888 89.4362 11.968 89.7642 11.968C90.1002 11.968 90.2682 11.812 90.2682 11.5C90.2682 11.26 90.0882 11.14 89.7282 11.14C89.5682 11.14 89.3762 11.156 89.1522 11.188L89.3322 10.156C88.7242 10.076 88.2762 9.784 87.9882 9.28C87.7082 8.776 87.5682 8.056 87.5682 7.12C87.5682 6.184 87.7602 5.476 88.1442 4.996C88.5282 4.508 89.0722 4.264 89.7762 4.264C90.3282 4.264 90.7762 4.396 91.1202 4.66C91.4642 4.916 91.6362 5.256 91.6362 5.68C91.6362 6.104 91.4482 6.316 91.0722 6.316ZM93.3245 7.156C93.3245 5.228 94.0765 4.264 95.5805 4.264C97.0845 4.264 97.8365 5.228 97.8365 7.156C97.8365 8.044 97.6965 8.748 97.4165 9.268C97.0965 9.876 96.4845 10.18 95.5805 10.18C94.6765 10.18 94.0645 9.876 93.7445 9.268C93.4645 8.748 93.3245 8.044 93.3245 7.156ZM94.3085 7.132C94.3085 8.588 94.7325 9.316 95.5805 9.316C96.4285 9.316 96.8525 8.588 96.8525 7.132C96.8525 5.668 96.4285 4.936 95.5805 4.936C94.7325 4.936 94.3085 5.668 94.3085 7.132ZM106.384 4.552L106.396 3.796C106.396 3.316 106.38 2.928 106.348 2.632L105.868 2.596C105.844 2.5 105.832 2.376 105.832 2.224C105.832 2.072 105.836 1.972 105.844 1.924C106.556 1.892 107.076 1.856 107.404 1.816L107.452 1.876C107.332 2.924 107.272 4.276 107.272 5.932C107.272 7.58 107.308 8.668 107.38 9.196L107.824 9.22C107.84 9.396 107.848 9.528 107.848 9.616C107.848 9.696 107.836 9.796 107.812 9.916C107.5 9.932 107.064 9.972 106.504 10.036C106.44 9.908 106.392 9.704 106.36 9.424C105.808 9.928 105.248 10.18 104.68 10.18C104.12 10.18 103.688 9.924 103.384 9.412C103.088 8.9 102.94 8.176 102.94 7.24C102.94 6.296 103.128 5.564 103.504 5.044C103.888 4.524 104.436 4.264 105.148 4.264C105.548 4.264 105.96 4.36 106.384 4.552ZM105.16 4.972C104.36 4.972 103.96 5.768 103.96 7.36C103.96 7.96 104.048 8.428 104.224 8.764C104.408 9.092 104.66 9.256 104.98 9.256C105.196 9.256 105.432 9.188 105.688 9.052C105.952 8.916 106.18 8.744 106.372 8.536C106.388 7.544 106.396 6.472 106.396 5.32C105.884 5.088 105.472 4.972 105.16 4.972ZM111.544 7.336C111.152 7.336 110.788 7.316 110.452 7.276C110.468 8.636 110.92 9.316 111.808 9.316C112.256 9.316 112.752 9.068 113.296 8.572C113.528 8.812 113.676 9.128 113.74 9.52C113.084 9.96 112.388 10.18 111.652 10.18C110.916 10.18 110.368 9.928 110.008 9.424C109.648 8.912 109.468 8.164 109.468 7.18C109.468 6.196 109.668 5.464 110.068 4.984C110.476 4.504 111.052 4.264 111.796 4.264C112.348 4.264 112.804 4.432 113.164 4.768C113.524 5.104 113.704 5.516 113.704 6.004C113.712 6.492 113.672 6.84 113.584 7.048C112.984 7.24 112.304 7.336 111.544 7.336ZM111.712 4.936C110.968 4.936 110.552 5.484 110.464 6.58C110.824 6.62 111.22 6.64 111.652 6.64C112.084 6.64 112.42 6.6 112.66 6.52C112.692 6.32 112.708 6.172 112.708 6.076C112.708 5.724 112.616 5.448 112.432 5.248C112.256 5.04 112.016 4.936 111.712 4.936ZM119.4 9.304C119.472 8.52 119.508 7.804 119.508 7.156C119.508 6.5 119.476 5.82 119.412 5.116L118.968 5.08C118.944 4.944 118.932 4.816 118.932 4.696C118.932 4.568 118.936 4.472 118.944 4.408C119.408 4.392 119.904 4.356 120.432 4.3L120.492 4.36C120.42 4.832 120.384 5.624 120.384 6.736C120.384 7.848 120.42 8.704 120.492 9.304L120.936 9.34C120.952 9.468 120.96 9.58 120.96 9.676C120.96 9.764 120.948 9.876 120.924 10.012C120.644 10.004 120.32 10 119.952 10C119.584 10 119.264 10.004 118.992 10.012C118.968 9.892 118.956 9.768 118.956 9.64C118.956 9.512 118.964 9.412 118.98 9.34L119.4 9.304ZM120.612 2.644C120.612 3.14 120.356 3.388 119.844 3.388C119.444 3.388 119.244 3.184 119.244 2.776C119.244 2.272 119.5 2.02 120.012 2.02C120.412 2.02 120.612 2.228 120.612 2.644ZM127.376 5.8L127.364 6.964C127.364 7.804 127.412 8.584 127.508 9.304L127.928 9.34C127.944 9.516 127.952 9.64 127.952 9.712C127.952 9.776 127.94 9.876 127.916 10.012C127.692 10.004 127.356 10 126.908 10C126.46 10 126.14 10.004 125.948 10.012C125.924 9.892 125.912 9.78 125.912 9.676C125.912 9.564 125.92 9.452 125.936 9.34L126.356 9.304C126.42 8.368 126.452 7.568 126.452 6.904C126.452 6.232 126.384 5.752 126.248 5.464C126.12 5.176 125.896 5.032 125.576 5.032C125.144 5.032 124.668 5.292 124.148 5.812C124.14 6.02 124.136 6.508 124.136 7.276C124.136 8.036 124.172 8.712 124.244 9.304L124.688 9.34C124.704 9.516 124.712 9.64 124.712 9.712C124.712 9.776 124.7 9.876 124.676 10.012C124.452 10.004 124.124 10 123.692 10C123.26 10 122.944 10.004 122.744 10.012C122.72 9.892 122.708 9.78 122.708 9.676C122.708 9.564 122.716 9.452 122.732 9.34L123.152 9.304C123.224 8.504 123.26 7.772 123.26 7.108C123.26 6.436 123.228 5.772 123.164 5.116L122.72 5.08C122.696 4.944 122.684 4.812 122.684 4.684C122.684 4.548 122.688 4.456 122.696 4.408C123.104 4.4 123.6 4.364 124.184 4.3L124.244 4.36C124.228 4.456 124.204 4.696 124.172 5.08C124.42 4.832 124.708 4.636 125.036 4.492C125.364 4.34 125.672 4.264 125.96 4.264C126.904 4.264 127.376 4.776 127.376 5.8ZM129.959 8.056C129.959 8.056 129.967 7.164 129.983 5.38C129.983 5.26 129.979 5.168 129.971 5.104C129.635 5.104 129.395 5.108 129.251 5.116C129.203 4.988 129.179 4.864 129.179 4.744C129.179 4.616 129.187 4.52 129.203 4.456H129.935L129.875 3.568C130.075 3.504 130.283 3.472 130.499 3.472C130.723 3.472 130.907 3.488 131.051 3.52L130.943 4.444C131.383 4.436 131.827 4.412 132.275 4.372C132.323 4.476 132.347 4.592 132.347 4.72C132.347 4.84 132.331 4.988 132.299 5.164C132.003 5.148 131.535 5.132 130.895 5.116C130.879 5.276 130.871 5.512 130.871 5.824V8.26C130.871 8.468 130.879 8.64 130.895 8.776C130.919 8.904 130.971 9.024 131.051 9.136C131.139 9.24 131.263 9.292 131.423 9.292C131.775 9.292 132.111 9.168 132.431 8.92C132.599 9.16 132.683 9.484 132.683 9.892C132.243 10.084 131.859 10.18 131.531 10.18C131.211 10.18 130.955 10.136 130.763 10.048C130.571 9.968 130.423 9.872 130.319 9.76C130.215 9.64 130.135 9.476 130.079 9.268C129.999 8.972 129.959 8.568 129.959 8.056ZM135.954 7.336C135.562 7.336 135.198 7.316 134.862 7.276C134.878 8.636 135.33 9.316 136.218 9.316C136.666 9.316 137.162 9.068 137.706 8.572C137.938 8.812 138.086 9.128 138.15 9.52C137.494 9.96 136.798 10.18 136.062 10.18C135.326 10.18 134.778 9.928 134.418 9.424C134.058 8.912 133.878 8.164 133.878 7.18C133.878 6.196 134.078 5.464 134.478 4.984C134.886 4.504 135.462 4.264 136.206 4.264C136.758 4.264 137.214 4.432 137.574 4.768C137.934 5.104 138.114 5.516 138.114 6.004C138.122 6.492 138.082 6.84 137.994 7.048C137.394 7.24 136.714 7.336 135.954 7.336ZM136.122 4.936C135.378 4.936 134.962 5.484 134.874 6.58C135.234 6.62 135.63 6.64 136.062 6.64C136.494 6.64 136.83 6.6 137.07 6.52C137.102 6.32 137.118 6.172 137.118 6.076C137.118 5.724 137.026 5.448 136.842 5.248C136.666 5.04 136.426 4.936 136.122 4.936ZM140.204 9.304C140.276 8.504 140.312 7.772 140.312 7.108C140.312 6.436 140.28 5.772 140.216 5.116L139.772 5.08C139.748 4.952 139.736 4.82 139.736 4.684C139.736 4.548 139.74 4.456 139.748 4.408C140.156 4.4 140.652 4.364 141.236 4.3L141.296 4.36C141.288 4.408 141.264 4.644 141.224 5.068C141.408 4.836 141.62 4.644 141.86 4.492C142.108 4.34 142.348 4.264 142.58 4.264C142.82 4.264 143.028 4.348 143.204 4.516C143.38 4.684 143.468 4.904 143.468 5.176C143.468 5.624 143.28 5.848 142.904 5.848C142.688 5.848 142.516 5.78 142.388 5.644C142.26 5.5 142.196 5.312 142.196 5.08C142.18 5.072 142.152 5.068 142.112 5.068C141.816 5.068 141.512 5.292 141.2 5.74C141.192 5.964 141.188 6.468 141.188 7.252C141.188 8.028 141.224 8.712 141.296 9.304L141.74 9.34C141.756 9.516 141.764 9.64 141.764 9.712C141.764 9.776 141.752 9.876 141.728 10.012C141.504 10.004 141.176 10 140.744 10C140.312 10 139.996 10.004 139.796 10.012C139.772 9.892 139.76 9.78 139.76 9.676C139.76 9.564 139.768 9.452 139.784 9.34L140.204 9.304ZM152.177 5.98L152.165 6.964C152.165 7.804 152.213 8.584 152.309 9.304L152.741 9.34C152.757 9.412 152.765 9.508 152.765 9.628C152.765 9.748 152.753 9.876 152.729 10.012C152.505 10.004 152.169 10 151.721 10C151.273 10 150.953 10.004 150.761 10.012C150.737 9.892 150.725 9.78 150.725 9.676C150.725 9.564 150.733 9.452 150.749 9.34L151.157 9.304C151.221 8.368 151.253 7.568 151.253 6.904C151.253 6.232 151.193 5.752 151.073 5.464C150.953 5.176 150.753 5.032 150.473 5.032C150.073 5.032 149.645 5.296 149.189 5.824L149.177 6.964C149.177 7.804 149.225 8.584 149.321 9.304L149.741 9.34C149.757 9.468 149.765 9.58 149.765 9.676C149.765 9.764 149.753 9.876 149.729 10.012C149.505 10.004 149.169 10 148.721 10C148.273 10 147.953 10.004 147.761 10.012C147.737 9.892 147.725 9.78 147.725 9.676C147.725 9.564 147.733 9.452 147.749 9.34L148.169 9.304C148.233 8.368 148.265 7.568 148.265 6.904C148.265 6.232 148.205 5.752 148.085 5.464C147.965 5.176 147.765 5.032 147.485 5.032C147.077 5.032 146.649 5.292 146.201 5.812C146.193 6.02 146.189 6.508 146.189 7.276C146.189 8.036 146.225 8.712 146.297 9.304L146.741 9.34C146.757 9.516 146.765 9.64 146.765 9.712C146.765 9.776 146.753 9.876 146.729 10.012C146.505 10.004 146.177 10 145.745 10C145.313 10 144.997 10.004 144.797 10.012C144.773 9.892 144.761 9.78 144.761 9.676C144.761 9.564 144.769 9.452 144.785 9.34L145.205 9.304C145.277 8.504 145.313 7.772 145.313 7.108C145.313 6.436 145.281 5.772 145.217 5.116L144.773 5.08C144.749 4.944 144.737 4.812 144.737 4.684C144.737 4.548 144.741 4.456 144.749 4.408C145.157 4.4 145.653 4.364 146.237 4.3L146.297 4.36C146.273 4.528 146.249 4.764 146.225 5.068C146.457 4.828 146.725 4.636 147.029 4.492C147.333 4.34 147.617 4.264 147.881 4.264C148.537 4.264 148.949 4.572 149.117 5.188C149.349 4.916 149.625 4.696 149.945 4.528C150.273 4.352 150.581 4.264 150.869 4.264C151.317 4.264 151.645 4.404 151.853 4.684C152.069 4.956 152.177 5.388 152.177 5.98ZM156.481 7.336C156.089 7.336 155.725 7.316 155.389 7.276C155.405 8.636 155.857 9.316 156.745 9.316C157.193 9.316 157.689 9.068 158.233 8.572C158.465 8.812 158.613 9.128 158.677 9.52C158.021 9.96 157.325 10.18 156.589 10.18C155.853 10.18 155.305 9.928 154.945 9.424C154.585 8.912 154.405 8.164 154.405 7.18C154.405 6.196 154.605 5.464 155.005 4.984C155.413 4.504 155.989 4.264 156.733 4.264C157.285 4.264 157.741 4.432 158.101 4.768C158.461 5.104 158.641 5.516 158.641 6.004C158.649 6.492 158.609 6.84 158.521 7.048C157.921 7.24 157.241 7.336 156.481 7.336ZM156.649 4.936C155.905 4.936 155.489 5.484 155.401 6.58C155.761 6.62 156.157 6.64 156.589 6.64C157.021 6.64 157.357 6.6 157.597 6.52C157.629 6.32 157.645 6.172 157.645 6.076C157.645 5.724 157.553 5.448 157.369 5.248C157.193 5.04 156.953 4.936 156.649 4.936ZM163.923 4.552L163.935 3.796C163.935 3.316 163.919 2.928 163.887 2.632L163.407 2.596C163.383 2.5 163.371 2.376 163.371 2.224C163.371 2.072 163.375 1.972 163.383 1.924C164.095 1.892 164.615 1.856 164.943 1.816L164.991 1.876C164.871 2.924 164.811 4.276 164.811 5.932C164.811 7.58 164.847 8.668 164.919 9.196L165.363 9.22C165.379 9.396 165.387 9.528 165.387 9.616C165.387 9.696 165.375 9.796 165.351 9.916C165.039 9.932 164.603 9.972 164.043 10.036C163.979 9.908 163.931 9.704 163.899 9.424C163.347 9.928 162.787 10.18 162.219 10.18C161.659 10.18 161.227 9.924 160.923 9.412C160.627 8.9 160.479 8.176 160.479 7.24C160.479 6.296 160.667 5.564 161.043 5.044C161.427 4.524 161.975 4.264 162.687 4.264C163.087 4.264 163.499 4.36 163.923 4.552ZM162.699 4.972C161.899 4.972 161.499 5.768 161.499 7.36C161.499 7.96 161.587 8.428 161.763 8.764C161.947 9.092 162.199 9.256 162.519 9.256C162.735 9.256 162.971 9.188 163.227 9.052C163.491 8.916 163.719 8.744 163.911 8.536C163.927 7.544 163.935 6.472 163.935 5.32C163.423 5.088 163.011 4.972 162.699 4.972ZM167.559 9.304C167.631 8.52 167.667 7.804 167.667 7.156C167.667 6.5 167.635 5.82 167.571 5.116L167.127 5.08C167.103 4.944 167.091 4.816 167.091 4.696C167.091 4.568 167.095 4.472 167.103 4.408C167.567 4.392 168.063 4.356 168.591 4.3L168.651 4.36C168.579 4.832 168.543 5.624 168.543 6.736C168.543 7.848 168.579 8.704 168.651 9.304L169.095 9.34C169.111 9.468 169.119 9.58 169.119 9.676C169.119 9.764 169.107 9.876 169.083 10.012C168.803 10.004 168.479 10 168.111 10C167.743 10 167.423 10.004 167.151 10.012C167.127 9.892 167.115 9.768 167.115 9.64C167.115 9.512 167.123 9.412 167.139 9.34L167.559 9.304ZM168.771 2.644C168.771 3.14 168.515 3.388 168.003 3.388C167.603 3.388 167.403 3.184 167.403 2.776C167.403 2.272 167.659 2.02 168.171 2.02C168.571 2.02 168.771 2.228 168.771 2.644ZM174.876 5.86L174.828 7.588C174.828 8.132 174.86 8.664 174.924 9.184L175.368 9.22C175.384 9.348 175.392 9.468 175.392 9.58C175.392 9.684 175.38 9.796 175.356 9.916C175.124 9.924 174.672 9.964 174 10.036C173.944 9.884 173.9 9.696 173.868 9.472C173.244 9.944 172.704 10.18 172.248 10.18C171.8 10.18 171.448 10.036 171.192 9.748C170.944 9.452 170.82 9.036 170.82 8.5C170.82 7.956 170.988 7.528 171.324 7.216C171.668 6.904 172.096 6.748 172.608 6.748C173.128 6.748 173.572 6.844 173.94 7.036C173.948 6.948 173.952 6.804 173.952 6.604C173.952 6.012 173.868 5.588 173.7 5.332C173.54 5.068 173.292 4.936 172.956 4.936C172.62 4.936 172.376 5 172.224 5.128C172.288 5.256 172.32 5.416 172.32 5.608C172.32 5.8 172.256 5.968 172.128 6.112C172.008 6.248 171.836 6.316 171.612 6.316C171.236 6.316 171.048 6.096 171.048 5.656C171.048 5.208 171.216 4.864 171.552 4.624C171.888 4.384 172.36 4.264 172.968 4.264C173.576 4.264 174.044 4.408 174.372 4.696C174.708 4.976 174.876 5.364 174.876 5.86ZM173.892 7.792C173.564 7.512 173.212 7.372 172.836 7.372C172.116 7.372 171.756 7.692 171.756 8.332C171.756 8.988 172.04 9.316 172.608 9.316C172.816 9.316 173.036 9.264 173.268 9.16C173.508 9.048 173.696 8.912 173.832 8.752C173.872 8.272 173.892 7.952 173.892 7.792ZM180.535 6.316C180.311 6.316 180.135 6.248 180.007 6.112C179.887 5.968 179.827 5.796 179.827 5.596C179.827 5.388 179.855 5.232 179.911 5.128C179.735 4.992 179.527 4.924 179.287 4.924C178.439 4.924 178.015 5.676 178.015 7.18C178.015 7.868 178.123 8.396 178.339 8.764C178.555 9.132 178.859 9.316 179.251 9.316C179.651 9.316 180.143 9.068 180.727 8.572C180.959 8.812 181.107 9.128 181.171 9.52C180.547 9.936 179.927 10.156 179.311 10.18L179.335 10.648C180.143 10.68 180.547 10.96 180.547 11.488C180.547 12.176 180.103 12.52 179.215 12.52C178.855 12.52 178.559 12.472 178.327 12.376C178.319 12.352 178.315 12.276 178.315 12.148C178.315 12.028 178.367 11.888 178.471 11.728C178.647 11.888 178.899 11.968 179.227 11.968C179.563 11.968 179.731 11.812 179.731 11.5C179.731 11.26 179.551 11.14 179.191 11.14C179.031 11.14 178.839 11.156 178.615 11.188L178.795 10.156C178.187 10.076 177.739 9.784 177.451 9.28C177.171 8.776 177.031 8.056 177.031 7.12C177.031 6.184 177.223 5.476 177.607 4.996C177.991 4.508 178.535 4.264 179.239 4.264C179.791 4.264 180.239 4.396 180.583 4.66C180.927 4.916 181.099 5.256 181.099 5.68C181.099 6.104 180.911 6.316 180.535 6.316ZM186.904 5.86L186.856 7.588C186.856 8.132 186.888 8.664 186.952 9.184L187.396 9.22C187.412 9.348 187.42 9.468 187.42 9.58C187.42 9.684 187.408 9.796 187.384 9.916C187.152 9.924 186.7 9.964 186.028 10.036C185.972 9.884 185.928 9.696 185.896 9.472C185.272 9.944 184.732 10.18 184.276 10.18C183.828 10.18 183.476 10.036 183.22 9.748C182.972 9.452 182.848 9.036 182.848 8.5C182.848 7.956 183.016 7.528 183.352 7.216C183.696 6.904 184.124 6.748 184.636 6.748C185.156 6.748 185.6 6.844 185.968 7.036C185.976 6.948 185.98 6.804 185.98 6.604C185.98 6.012 185.896 5.588 185.728 5.332C185.568 5.068 185.32 4.936 184.984 4.936C184.648 4.936 184.404 5 184.252 5.128C184.316 5.256 184.348 5.416 184.348 5.608C184.348 5.8 184.284 5.968 184.156 6.112C184.036 6.248 183.864 6.316 183.64 6.316C183.264 6.316 183.076 6.096 183.076 5.656C183.076 5.208 183.244 4.864 183.58 4.624C183.916 4.384 184.388 4.264 184.996 4.264C185.604 4.264 186.072 4.408 186.4 4.696C186.736 4.976 186.904 5.364 186.904 5.86ZM185.92 7.792C185.592 7.512 185.24 7.372 184.864 7.372C184.144 7.372 183.784 7.692 183.784 8.332C183.784 8.988 184.068 9.316 184.636 9.316C184.844 9.316 185.064 9.264 185.296 9.16C185.536 9.048 185.724 8.912 185.86 8.752C185.9 8.272 185.92 7.952 185.92 7.792ZM183.232 3.16C183.344 2.936 183.516 2.736 183.748 2.56C183.98 2.376 184.2 2.284 184.408 2.284C184.616 2.284 184.844 2.352 185.092 2.488C185.348 2.616 185.544 2.68 185.68 2.68C185.88 2.68 186.08 2.52 186.28 2.2C186.496 2.296 186.632 2.428 186.688 2.596C186.576 2.812 186.404 3.012 186.172 3.196C185.94 3.38 185.716 3.472 185.5 3.472C185.292 3.472 185.06 3.408 184.804 3.28C184.556 3.144 184.344 3.076 184.168 3.076C184 3.076 183.816 3.236 183.616 3.556C183.416 3.46 183.288 3.328 183.232 3.16ZM189.06 7.156C189.06 5.228 189.812 4.264 191.316 4.264C192.82 4.264 193.572 5.228 193.572 7.156C193.572 8.044 193.432 8.748 193.152 9.268C192.832 9.876 192.22 10.18 191.316 10.18C190.412 10.18 189.8 9.876 189.48 9.268C189.2 8.748 189.06 8.044 189.06 7.156ZM190.044 7.132C190.044 8.588 190.468 9.316 191.316 9.316C192.164 9.316 192.588 8.588 192.588 7.132C192.588 5.668 192.164 4.936 191.316 4.936C190.468 4.936 190.044 5.668 190.044 7.132Z" fill="#C7392A"/>
<path d="M91.1655 94.6049C92.2935 94.6049 92.8575 95.5649 92.8575 97.4849C92.8575 98.2209 92.7135 98.8889 92.4255 99.4889C92.2655 99.8089 92.0255 100.061 91.7055 100.245C91.3855 100.429 91.0295 100.521 90.6375 100.521C90.2455 100.521 89.8375 100.425 89.4135 100.233C89.4535 101.233 89.4895 101.873 89.5215 102.153L89.9655 102.189L89.9895 102.501C89.9895 102.661 89.9775 102.781 89.9535 102.861C89.7615 102.853 89.4295 102.849 88.9575 102.849C88.4935 102.849 88.1815 102.853 88.0215 102.861C87.9975 102.725 87.9855 102.605 87.9855 102.501C87.9855 102.397 87.9935 102.293 88.0095 102.189L88.4535 102.153C88.5175 101.281 88.5495 100.117 88.5495 98.6609C88.5495 97.1969 88.5175 96.1289 88.4535 95.4569L88.0095 95.4209C87.9855 95.3489 87.9735 95.2369 87.9735 95.0849C87.9735 94.9249 87.9775 94.8129 87.9855 94.7489C88.3535 94.7409 88.8455 94.7049 89.4615 94.6409L89.5215 94.7009C89.4895 94.9329 89.4695 95.1609 89.4615 95.3849C90.0135 94.8649 90.5815 94.6049 91.1655 94.6049ZM90.5295 99.6569C91.4015 99.6569 91.8375 98.8809 91.8375 97.3289C91.8375 96.3849 91.6815 95.7889 91.3695 95.5409C91.2255 95.4289 91.0375 95.3729 90.8055 95.3729C90.5735 95.3729 90.3295 95.4489 90.0735 95.6009C89.8175 95.7529 89.6015 95.9369 89.4255 96.1529C89.4095 96.8169 89.4015 97.8929 89.4015 99.3809C89.8655 99.5649 90.2415 99.6569 90.5295 99.6569ZM98.7152 96.2009L98.6672 97.9289C98.6672 98.4729 98.6992 99.0049 98.7632 99.5249L99.2072 99.5609C99.2232 99.6889 99.2312 99.8089 99.2312 99.9209C99.2312 100.025 99.2192 100.137 99.1952 100.257C98.9632 100.265 98.5112 100.305 97.8392 100.377C97.7832 100.225 97.7392 100.037 97.7072 99.8129C97.0832 100.285 96.5432 100.521 96.0872 100.521C95.6392 100.521 95.2872 100.377 95.0312 100.089C94.7832 99.7929 94.6592 99.3769 94.6592 98.8409C94.6592 98.2969 94.8272 97.8689 95.1632 97.5569C95.5072 97.2449 95.9352 97.0889 96.4472 97.0889C96.9672 97.0889 97.4112 97.1849 97.7792 97.3769C97.7872 97.2889 97.7912 97.1449 97.7912 96.9449C97.7912 96.3529 97.7072 95.9289 97.5392 95.6729C97.3792 95.4089 97.1312 95.2769 96.7952 95.2769C96.4592 95.2769 96.2152 95.3409 96.0632 95.4689C96.1272 95.5969 96.1592 95.7569 96.1592 95.9489C96.1592 96.1409 96.0952 96.3089 95.9672 96.4529C95.8472 96.5889 95.6752 96.6569 95.4512 96.6569C95.0752 96.6569 94.8872 96.4369 94.8872 95.9969C94.8872 95.5489 95.0552 95.2049 95.3912 94.9649C95.7272 94.7249 96.1992 94.6049 96.8072 94.6049C97.4152 94.6049 97.8832 94.7489 98.2112 95.0369C98.5472 95.3169 98.7152 95.7049 98.7152 96.2009ZM97.7312 98.1329C97.4032 97.8529 97.0512 97.7129 96.6752 97.7129C95.9552 97.7129 95.5952 98.0329 95.5952 98.6729C95.5952 99.3289 95.8792 99.6569 96.4472 99.6569C96.6552 99.6569 96.8752 99.6049 97.1072 99.5009C97.3472 99.3889 97.5352 99.2529 97.6712 99.0929C97.7112 98.6129 97.7312 98.2929 97.7312 98.1329ZM101.183 99.6449C101.255 98.8449 101.291 98.1129 101.291 97.4489C101.291 96.7769 101.259 96.1129 101.195 95.4569L100.751 95.4209C100.727 95.2929 100.715 95.1609 100.715 95.0249C100.715 94.8889 100.719 94.7969 100.727 94.7489C101.135 94.7409 101.631 94.7049 102.215 94.6409L102.275 94.7009C102.267 94.7489 102.243 94.9849 102.203 95.4089C102.387 95.1769 102.599 94.9849 102.839 94.8329C103.087 94.6809 103.327 94.6049 103.559 94.6049C103.799 94.6049 104.007 94.6889 104.183 94.8569C104.359 95.0249 104.447 95.2449 104.447 95.5169C104.447 95.9649 104.259 96.1889 103.883 96.1889C103.667 96.1889 103.495 96.1209 103.367 95.9849C103.239 95.8409 103.175 95.6529 103.175 95.4209C103.159 95.4129 103.131 95.4089 103.091 95.4089C102.795 95.4089 102.491 95.6329 102.179 96.0809C102.171 96.3049 102.167 96.8089 102.167 97.5929C102.167 98.3689 102.203 99.0529 102.275 99.6449L102.719 99.6809C102.735 99.8569 102.743 99.9809 102.743 100.053C102.743 100.117 102.731 100.217 102.707 100.353C102.483 100.345 102.155 100.341 101.723 100.341C101.291 100.341 100.975 100.345 100.775 100.353C100.751 100.233 100.739 100.121 100.739 100.017C100.739 99.9049 100.747 99.7929 100.763 99.6809L101.183 99.6449ZM109.747 96.2009L109.699 97.9289C109.699 98.4729 109.731 99.0049 109.795 99.5249L110.239 99.5609C110.255 99.6889 110.263 99.8089 110.263 99.9209C110.263 100.025 110.251 100.137 110.227 100.257C109.995 100.265 109.543 100.305 108.871 100.377C108.815 100.225 108.771 100.037 108.739 99.8129C108.115 100.285 107.575 100.521 107.119 100.521C106.671 100.521 106.319 100.377 106.063 100.089C105.815 99.7929 105.691 99.3769 105.691 98.8409C105.691 98.2969 105.859 97.8689 106.195 97.5569C106.539 97.2449 106.967 97.0889 107.479 97.0889C107.999 97.0889 108.443 97.1849 108.811 97.3769C108.819 97.2889 108.823 97.1449 108.823 96.9449C108.823 96.3529 108.739 95.9289 108.571 95.6729C108.411 95.4089 108.163 95.2769 107.827 95.2769C107.491 95.2769 107.247 95.3409 107.095 95.4689C107.159 95.5969 107.191 95.7569 107.191 95.9489C107.191 96.1409 107.127 96.3089 106.999 96.4529C106.879 96.5889 106.707 96.6569 106.483 96.6569C106.107 96.6569 105.919 96.4369 105.919 95.9969C105.919 95.5489 106.087 95.2049 106.423 94.9649C106.759 94.7249 107.231 94.6049 107.839 94.6049C108.447 94.6049 108.915 94.7489 109.243 95.0369C109.579 95.3169 109.747 95.7049 109.747 96.2009ZM108.763 98.1329C108.435 97.8529 108.083 97.7129 107.707 97.7129C106.987 97.7129 106.627 98.0329 106.627 98.6729C106.627 99.3289 106.911 99.6569 107.479 99.6569C107.687 99.6569 107.907 99.6049 108.139 99.5009C108.379 99.3889 108.567 99.2529 108.703 99.0929C108.743 98.6129 108.763 98.2929 108.763 98.1329ZM115.269 97.4969C115.269 95.5689 116.021 94.6049 117.525 94.6049C119.029 94.6049 119.781 95.5689 119.781 97.4969C119.781 98.3849 119.641 99.0889 119.361 99.6089C119.041 100.217 118.429 100.521 117.525 100.521C116.621 100.521 116.009 100.217 115.689 99.6089C115.409 99.0889 115.269 98.3849 115.269 97.4969ZM116.253 97.4729C116.253 98.9289 116.677 99.6569 117.525 99.6569C118.373 99.6569 118.797 98.9289 118.797 97.4729C118.797 96.0089 118.373 95.2769 117.525 95.2769C116.677 95.2769 116.253 96.0089 116.253 97.4729ZM125.184 98.3969C125.184 98.3969 125.192 97.5049 125.208 95.7209C125.208 95.6009 125.204 95.5089 125.196 95.4449C124.86 95.4449 124.62 95.4489 124.476 95.4569C124.428 95.3289 124.404 95.2049 124.404 95.0849C124.404 94.9569 124.412 94.8609 124.428 94.7969H125.16L125.1 93.9089C125.3 93.8449 125.508 93.8129 125.724 93.8129C125.948 93.8129 126.132 93.8289 126.276 93.8609L126.168 94.7849C126.608 94.7769 127.052 94.7529 127.5 94.7129C127.548 94.8169 127.572 94.9329 127.572 95.0609C127.572 95.1809 127.556 95.3289 127.524 95.5049C127.228 95.4889 126.76 95.4729 126.12 95.4569C126.104 95.6169 126.096 95.8529 126.096 96.1649V98.6009C126.096 98.8089 126.104 98.9809 126.12 99.1169C126.144 99.2449 126.196 99.3649 126.276 99.4769C126.364 99.5809 126.488 99.6329 126.648 99.6329C127 99.6329 127.336 99.5089 127.656 99.2609C127.824 99.5009 127.908 99.8249 127.908 100.233C127.468 100.425 127.084 100.521 126.756 100.521C126.436 100.521 126.18 100.477 125.988 100.389C125.796 100.309 125.648 100.213 125.544 100.101C125.44 99.9809 125.36 99.8169 125.304 99.6089C125.224 99.3129 125.184 98.9089 125.184 98.3969ZM129.416 99.6449C129.488 98.8449 129.524 98.1129 129.524 97.4489C129.524 96.7769 129.492 96.1129 129.428 95.4569L128.984 95.4209C128.96 95.2929 128.948 95.1609 128.948 95.0249C128.948 94.8889 128.952 94.7969 128.96 94.7489C129.368 94.7409 129.864 94.7049 130.448 94.6409L130.508 94.7009C130.5 94.7489 130.476 94.9849 130.436 95.4089C130.62 95.1769 130.832 94.9849 131.072 94.8329C131.32 94.6809 131.56 94.6049 131.792 94.6049C132.032 94.6049 132.24 94.6889 132.416 94.8569C132.592 95.0249 132.68 95.2449 132.68 95.5169C132.68 95.9649 132.492 96.1889 132.116 96.1889C131.9 96.1889 131.728 96.1209 131.6 95.9849C131.472 95.8409 131.408 95.6529 131.408 95.4209C131.392 95.4129 131.364 95.4089 131.324 95.4089C131.028 95.4089 130.724 95.6329 130.412 96.0809C130.404 96.3049 130.4 96.8089 130.4 97.5929C130.4 98.3689 130.436 99.0529 130.508 99.6449L130.952 99.6809C130.968 99.8569 130.976 99.9809 130.976 100.053C130.976 100.117 130.964 100.217 130.94 100.353C130.716 100.345 130.388 100.341 129.956 100.341C129.524 100.341 129.208 100.345 129.008 100.353C128.984 100.233 128.972 100.121 128.972 100.017C128.972 99.9049 128.98 99.7929 128.996 99.6809L129.416 99.6449ZM137.98 96.2009L137.932 97.9289C137.932 98.4729 137.964 99.0049 138.028 99.5249L138.472 99.5609C138.488 99.6889 138.496 99.8089 138.496 99.9209C138.496 100.025 138.484 100.137 138.46 100.257C138.228 100.265 137.776 100.305 137.104 100.377C137.048 100.225 137.004 100.037 136.972 99.8129C136.348 100.285 135.808 100.521 135.352 100.521C134.904 100.521 134.552 100.377 134.296 100.089C134.048 99.7929 133.924 99.3769 133.924 98.8409C133.924 98.2969 134.092 97.8689 134.428 97.5569C134.772 97.2449 135.2 97.0889 135.712 97.0889C136.232 97.0889 136.676 97.1849 137.044 97.3769C137.052 97.2889 137.056 97.1449 137.056 96.9449C137.056 96.3529 136.972 95.9289 136.804 95.6729C136.644 95.4089 136.396 95.2769 136.06 95.2769C135.724 95.2769 135.48 95.3409 135.328 95.4689C135.392 95.5969 135.424 95.7569 135.424 95.9489C135.424 96.1409 135.36 96.3089 135.232 96.4529C135.112 96.5889 134.94 96.6569 134.716 96.6569C134.34 96.6569 134.152 96.4369 134.152 95.9969C134.152 95.5489 134.32 95.2049 134.656 94.9649C134.992 94.7249 135.464 94.6049 136.072 94.6049C136.68 94.6049 137.148 94.7489 137.476 95.0369C137.812 95.3169 137.98 95.7049 137.98 96.2009ZM136.996 98.1329C136.668 97.8529 136.316 97.7129 135.94 97.7129C135.22 97.7129 134.86 98.0329 134.86 98.6729C134.86 99.3289 135.144 99.6569 135.712 99.6569C135.92 99.6569 136.14 99.6049 136.372 99.5009C136.612 99.3889 136.8 99.2529 136.936 99.0929C136.976 98.6129 136.996 98.2929 136.996 98.1329ZM143.748 97.0889C143.748 95.9449 143.408 95.3729 142.728 95.3729C142.24 95.3729 141.776 95.6329 141.336 96.1529V99.3809C141.704 99.5649 142.092 99.6569 142.5 99.6569C143.332 99.6569 143.748 98.8009 143.748 97.0889ZM141.336 95.4209C141.896 94.8769 142.46 94.6049 143.028 94.6049C143.596 94.6049 144.028 94.8369 144.324 95.3009C144.62 95.7649 144.768 96.4129 144.768 97.2449C144.768 98.3729 144.572 99.2009 144.18 99.7289C143.796 100.257 143.188 100.521 142.356 100.521C141.836 100.521 141.144 100.417 140.28 100.209C140.408 99.4249 140.472 98.1529 140.472 96.3929C140.472 94.6329 140.452 93.4929 140.412 92.9729L139.932 92.9369C139.908 92.8409 139.896 92.7169 139.896 92.5649C139.896 92.4129 139.9 92.3129 139.908 92.2649C140.62 92.2329 141.14 92.1969 141.468 92.1569L141.516 92.2169C141.404 93.1769 141.344 94.2449 141.336 95.4209ZM150.629 96.2009L150.581 97.9289C150.581 98.4729 150.613 99.0049 150.677 99.5249L151.121 99.5609C151.137 99.6889 151.145 99.8089 151.145 99.9209C151.145 100.025 151.133 100.137 151.109 100.257C150.877 100.265 150.425 100.305 149.753 100.377C149.697 100.225 149.653 100.037 149.621 99.8129C148.997 100.285 148.457 100.521 148.001 100.521C147.553 100.521 147.201 100.377 146.945 100.089C146.697 99.7929 146.573 99.3769 146.573 98.8409C146.573 98.2969 146.741 97.8689 147.077 97.5569C147.421 97.2449 147.849 97.0889 148.361 97.0889C148.881 97.0889 149.325 97.1849 149.693 97.3769C149.701 97.2889 149.705 97.1449 149.705 96.9449C149.705 96.3529 149.621 95.9289 149.453 95.6729C149.293 95.4089 149.045 95.2769 148.709 95.2769C148.373 95.2769 148.129 95.3409 147.977 95.4689C148.041 95.5969 148.073 95.7569 148.073 95.9489C148.073 96.1409 148.009 96.3089 147.881 96.4529C147.761 96.5889 147.589 96.6569 147.365 96.6569C146.989 96.6569 146.801 96.4369 146.801 95.9969C146.801 95.5489 146.969 95.2049 147.305 94.9649C147.641 94.7249 148.113 94.6049 148.721 94.6049C149.329 94.6049 149.797 94.7489 150.125 95.0369C150.461 95.3169 150.629 95.7049 150.629 96.2009ZM149.645 98.1329C149.317 97.8529 148.965 97.7129 148.589 97.7129C147.869 97.7129 147.509 98.0329 147.509 98.6729C147.509 99.3289 147.793 99.6569 148.361 99.6569C148.569 99.6569 148.789 99.6049 149.021 99.5009C149.261 99.3889 149.449 99.2529 149.585 99.0929C149.625 98.6129 149.645 98.2929 149.645 98.1329ZM153.361 97.5569V95.9129C153.361 94.4729 153.341 93.4929 153.301 92.9729L152.821 92.9369C152.797 92.8329 152.785 92.7129 152.785 92.5769C152.785 92.4329 152.789 92.3289 152.797 92.2649C153.525 92.2249 154.045 92.1889 154.357 92.1569L154.405 92.2169C154.293 93.1689 154.237 94.1929 154.237 95.2889V97.2689C154.237 98.2529 154.273 99.0449 154.345 99.6449L154.789 99.6809C154.805 99.8089 154.813 99.9209 154.813 100.017C154.813 100.105 154.801 100.217 154.777 100.353C154.497 100.345 154.173 100.341 153.805 100.341C153.437 100.341 153.117 100.345 152.845 100.353C152.821 100.233 152.809 100.129 152.809 100.041C152.809 99.9449 152.817 99.8249 152.833 99.6809L153.253 99.6449C153.325 98.8929 153.361 98.1969 153.361 97.5569ZM161.185 96.1409L161.173 97.3049C161.173 98.1529 161.221 98.9329 161.317 99.6449L161.737 99.6809C161.753 99.8089 161.761 99.9209 161.761 100.017C161.761 100.105 161.749 100.217 161.725 100.353C161.445 100.345 161.113 100.341 160.729 100.341C160.353 100.341 160.029 100.345 159.757 100.353C159.733 100.233 159.721 100.129 159.721 100.041C159.721 99.9449 159.729 99.8249 159.745 99.6809L160.165 99.6449C160.229 98.7809 160.261 98.0129 160.261 97.3409C160.261 96.6689 160.201 96.1729 160.081 95.8529C159.969 95.5329 159.737 95.3729 159.385 95.3729C158.937 95.3729 158.457 95.6289 157.945 96.1409V97.2689C157.945 98.2529 157.981 99.0449 158.053 99.6449L158.497 99.6809C158.513 99.8089 158.521 99.9209 158.521 100.017C158.521 100.105 158.509 100.217 158.485 100.353C158.205 100.345 157.881 100.341 157.513 100.341C157.145 100.341 156.825 100.345 156.553 100.353C156.529 100.233 156.517 100.129 156.517 100.041C156.517 99.9449 156.525 99.8249 156.541 99.6809L156.961 99.6449C157.033 98.8929 157.069 98.1969 157.069 97.5569V95.9129C157.069 94.4729 157.049 93.4929 157.009 92.9729L156.529 92.9369C156.505 92.8329 156.493 92.7129 156.493 92.5769C156.493 92.4329 156.497 92.3289 156.505 92.2649C157.233 92.2249 157.753 92.1889 158.065 92.1569L158.113 92.2169C158.001 93.1689 157.945 94.2409 157.945 95.4329C158.185 95.1929 158.473 94.9969 158.809 94.8449C159.145 94.6849 159.465 94.6049 159.769 94.6049C160.713 94.6049 161.185 95.1169 161.185 96.1409ZM163.407 97.4969C163.407 95.5689 164.159 94.6049 165.663 94.6049C167.167 94.6049 167.919 95.5689 167.919 97.4969C167.919 98.3849 167.779 99.0889 167.499 99.6089C167.179 100.217 166.567 100.521 165.663 100.521C164.759 100.521 164.147 100.217 163.827 99.6089C163.547 99.0889 163.407 98.3849 163.407 97.4969ZM164.391 97.4729C164.391 98.9289 164.815 99.6569 165.663 99.6569C166.511 99.6569 166.935 98.9289 166.935 97.4729C166.935 96.0089 166.511 95.2769 165.663 95.2769C164.815 95.2769 164.391 96.0089 164.391 97.4729Z" fill="#C7392A"/>
<path d="M114.812 62.9176C115.028 60.4696 115.136 57.2296 115.136 53.1976C115.136 49.1416 115.016 46.1656 114.776 44.2696L113.372 44.1616C113.3 43.8736 113.264 43.5016 113.264 43.0456C113.264 42.5896 113.276 42.2896 113.3 42.1456C114.836 42.1216 116.204 42.0136 117.404 41.8216C118.604 41.6296 119.876 41.5336 121.22 41.5336C123.644 41.5336 125.48 42.0976 126.728 43.2256C128 44.3296 128.636 46.0096 128.636 48.2656C128.636 50.5216 127.868 52.2256 126.332 53.3776C128.9 54.4096 130.184 56.2456 130.184 58.8856C130.184 61.1176 129.488 62.8096 128.096 63.9616C126.704 65.0896 124.652 65.6536 121.94 65.6536C120.428 65.6536 119.024 65.5576 117.728 65.3656C115.448 65.1976 113.972 65.0896 113.3 65.0416C113.276 64.8976 113.264 64.6096 113.264 64.1776C113.264 63.7456 113.3 63.3616 113.372 63.0256L114.812 62.9176ZM119.924 51.7216C120.452 52.0816 121.22 52.2616 122.228 52.2616C123.26 52.2616 124.064 51.9256 124.64 51.2536C125.216 50.5576 125.504 49.5256 125.504 48.1576C125.504 46.7656 125.12 45.6616 124.352 44.8456C123.584 44.0056 122.492 43.5856 121.076 43.5856C120.188 43.5856 119.204 43.8016 118.124 44.2336C117.932 46.2256 117.836 49.1296 117.836 52.9456C117.836 56.7616 117.932 59.8936 118.124 62.3416C119.54 62.8936 120.824 63.1696 121.976 63.1696C125.36 63.1696 127.052 61.7416 127.052 58.8856C127.052 56.4856 125.936 55.0216 123.704 54.4936C122.984 54.6136 122.276 54.6736 121.58 54.6736C120.908 54.6736 120.104 54.4936 119.168 54.1336C119.168 53.0296 119.42 52.2256 119.924 51.7216ZM138.975 44.1616C138.903 43.8736 138.867 43.5016 138.867 43.0456C138.867 42.5896 138.879 42.2896 138.903 42.1456C141.015 41.8816 142.587 41.7496 143.619 41.7496C144.651 41.7496 145.527 41.8696 146.247 42.1096C146.823 46.6216 148.827 53.5936 152.259 63.0256L153.591 63.1336C153.639 63.6616 153.663 64.0336 153.663 64.2496C153.663 64.4416 153.627 64.7416 153.555 65.1496C152.883 65.1256 151.839 65.1136 150.423 65.1136C149.007 65.1136 148.023 65.1256 147.471 65.1496C147.399 64.7896 147.363 64.4536 147.363 64.1416C147.363 63.8056 147.387 63.4696 147.435 63.1336L148.695 63.0256C148.575 62.4496 148.383 61.6216 148.119 60.5416C147.855 59.4376 147.711 58.8256 147.687 58.7056C146.319 58.6336 144.831 58.5976 143.223 58.5976C141.639 58.5976 140.151 58.6456 138.759 58.7416L137.751 63.0256L139.119 63.1336C139.167 63.6616 139.191 64.0336 139.191 64.2496C139.191 64.4416 139.155 64.7416 139.083 65.1496C138.507 65.1256 137.559 65.1136 136.239 65.1136C134.943 65.1136 134.031 65.1256 133.503 65.1496C133.431 64.7896 133.395 64.4536 133.395 64.1416C133.395 63.8056 133.419 63.4696 133.467 63.1336L134.727 63.0256C137.607 55.1296 139.503 48.8776 140.415 44.2696L138.975 44.1616ZM139.407 56.2216C140.223 56.2456 141.447 56.2576 143.079 56.2576C144.711 56.2576 146.031 56.2216 147.039 56.1496C145.911 51.8776 144.723 47.9296 143.475 44.3056H143.259C141.843 47.7376 140.559 51.7096 139.407 56.2216Z" fill="#C7392A"/>
<path d="M35.6256 58.0936C36.3696 58.0936 36.9456 58.3216 37.3536 58.7776C37.7616 59.2336 37.9656 59.7976 37.9656 60.4696C37.9656 61.1176 37.8576 61.6456 37.6416 62.0536C38.6976 62.9176 39.9096 63.3496 41.2776 63.3496C42.6696 63.3496 43.7136 63.0376 44.4096 62.4136C45.1056 61.7656 45.4536 60.8896 45.4536 59.7856C45.4536 58.6816 45.0696 57.7336 44.3016 56.9416C43.5336 56.1496 42.5976 55.4896 41.4936 54.9616C40.4136 54.4336 39.3336 53.8816 38.2536 53.3056C37.1736 52.7056 36.2496 51.9136 35.4816 50.9296C34.7136 49.9456 34.3296 48.7816 34.3296 47.4376C34.3296 45.5896 34.9416 44.1496 36.1656 43.1176C37.3896 42.0616 38.9616 41.5336 40.8816 41.5336C42.8016 41.5336 44.4576 41.9896 45.8496 42.9016C47.2656 43.8136 47.9736 45.0496 47.9736 46.6096C47.9736 48.1456 47.3496 48.9136 46.1016 48.9136C45.3576 48.9136 44.7816 48.6856 44.3736 48.2296C43.9656 47.7736 43.7616 47.1856 43.7616 46.4656C43.7616 45.7456 43.9056 45.1936 44.1936 44.8096C43.3536 44.0416 42.3216 43.6576 41.0976 43.6576C39.8736 43.6576 38.9496 43.9696 38.3256 44.5936C37.7256 45.2176 37.4256 45.9976 37.4256 46.9336C37.4256 47.8696 37.7016 48.6736 38.2536 49.3456C38.8056 49.9936 39.4896 50.5336 40.3056 50.9656C41.1216 51.3736 42.0096 51.8536 42.9696 52.4056C43.9296 52.9336 44.8176 53.4616 45.6336 53.9896C46.4496 54.5176 47.1336 55.2376 47.6856 56.1496C48.2376 57.0376 48.5136 58.0576 48.5136 59.2096C48.5136 61.1056 47.8536 62.6536 46.5336 63.8536C45.2376 65.0536 43.5696 65.6536 41.5296 65.6536C39.4896 65.6536 37.6776 65.1856 36.0936 64.2496C34.5336 63.2896 33.7536 61.9576 33.7536 60.2536C33.7536 58.8136 34.3776 58.0936 35.6256 58.0936ZM58.9704 44.0896C58.8024 46.0336 58.7184 49.0456 58.7184 53.1256C58.7184 57.2056 58.8264 60.5056 59.0424 63.0256L60.3384 63.1336C60.3864 63.5176 60.4104 63.8536 60.4104 64.1416C60.4104 64.4056 60.3744 64.7416 60.3024 65.1496C59.4624 65.1256 58.4904 65.1136 57.3864 65.1136C56.2824 65.1136 55.3224 65.1256 54.5064 65.1496C54.4344 64.7896 54.3984 64.4776 54.3984 64.2136C54.3984 63.9256 54.4224 63.5656 54.4704 63.1336L55.7304 63.0256C55.9224 60.4336 56.0184 57.1336 56.0184 53.1256C56.0184 49.0936 55.9104 46.0816 55.6944 44.0896L54.4704 43.9816C54.4224 43.5976 54.3984 43.2736 54.3984 43.0096C54.3984 42.7216 54.4344 42.3736 54.5064 41.9656C55.3464 41.9896 56.3184 42.0016 57.4224 42.0016C58.5264 42.0016 59.4864 41.9896 60.3024 41.9656C60.3744 42.3256 60.4104 42.6496 60.4104 42.9376C60.4104 43.2016 60.3864 43.5496 60.3384 43.9816L58.9704 44.0896ZM82.3122 59.8936C82.3842 57.8776 82.4202 55.2376 82.4202 51.9736C82.4202 48.7096 82.3122 46.0816 82.0962 44.0896L80.7642 43.9816C80.7162 43.5976 80.6922 43.2736 80.6922 43.0096C80.6922 42.7216 80.7282 42.3736 80.8002 41.9656C81.5682 41.9896 82.4442 42.0016 83.4282 42.0016C84.4362 42.0016 85.3122 41.9896 86.0562 41.9656C86.1282 42.3256 86.1642 42.6496 86.1642 42.9376C86.1642 43.2016 86.1402 43.5496 86.0922 43.9816L84.8322 44.0896C84.6642 46.0336 84.5802 49.6936 84.5802 55.0696C84.5802 60.4216 84.7842 63.7456 85.1922 65.0416C84.4722 65.2816 83.9442 65.4016 83.6082 65.4016C83.2962 65.4016 82.7322 65.3776 81.9162 65.3296C81.7482 64.5856 81.0402 63.2416 79.7922 61.2976C78.5442 59.3296 76.9842 56.9896 75.1122 54.2776C73.2642 51.5656 71.9322 49.5376 71.1162 48.1936C71.0922 49.2256 71.0802 51.3256 71.0802 54.4936C71.0802 57.6616 71.1882 60.5056 71.4042 63.0256L72.7362 63.1336C72.7842 63.5176 72.8082 63.8536 72.8082 64.1416C72.8082 64.4056 72.7722 64.7416 72.7002 65.1496C71.9322 65.1256 71.0442 65.1136 70.0362 65.1136C69.0282 65.1136 68.1522 65.1256 67.4082 65.1496C67.3362 64.7896 67.3002 64.4776 67.3002 64.2136C67.3002 63.9256 67.3242 63.5656 67.3722 63.1336L68.6322 63.0256C68.8242 60.4336 68.9202 57.1576 68.9202 53.1976C68.9202 49.2136 68.8122 46.2376 68.5962 44.2696L67.1922 44.1616C67.1202 43.8256 67.0842 43.4536 67.0842 43.0456C67.0842 42.6376 67.0962 42.3376 67.1202 42.1456C69.1602 42.0976 70.6722 42.0376 71.6562 41.9656C72.1122 43.6936 73.4082 46.2856 75.5442 49.7416C77.6802 53.1976 79.9362 56.5816 82.3122 59.8936ZM103.422 50.4976C103.95 50.4496 104.31 50.4256 104.502 50.4256C104.694 50.4256 105.006 50.4616 105.438 50.5336C105.414 51.2776 105.402 52.2376 105.402 53.4136C105.402 54.5896 105.414 55.3576 105.438 55.7176C105.078 55.7896 104.73 55.8256 104.394 55.8256C104.058 55.8256 103.734 55.8016 103.422 55.7536L103.314 54.4936C102.018 54.4456 100.95 54.4216 100.11 54.4216C99.2703 54.4216 98.2023 54.4456 96.9063 54.4936C96.9063 57.6376 96.9903 60.2656 97.1583 62.3776C97.9983 62.4496 99.1863 62.4856 100.722 62.4856C102.282 62.4856 103.506 62.4256 104.394 62.3056L104.502 59.8576C104.91 59.7856 105.282 59.7496 105.618 59.7496C105.978 59.7496 106.278 59.7616 106.518 59.7856C106.542 61.6576 106.65 63.4336 106.842 65.1136L106.662 65.2936C105.486 65.1736 102.906 65.1136 98.9223 65.1136C94.9623 65.1136 92.8743 65.1256 92.6583 65.1496C92.5863 64.7896 92.5503 64.4536 92.5503 64.1416C92.5503 63.8056 92.5743 63.4696 92.6223 63.1336L93.8823 63.0256C94.0983 59.3056 94.2063 55.9456 94.2063 52.9456C94.2063 49.9216 94.0623 47.0056 93.7743 44.1976L92.5503 44.0896C92.5023 43.7776 92.4783 43.4536 92.4783 43.1176C92.4783 42.7816 92.5143 42.4336 92.5863 42.0736C93.1863 42.0976 95.3823 42.1096 99.1743 42.1096C102.966 42.1096 105.402 42.0016 106.482 41.7856L106.662 41.9656C106.47 44.0776 106.362 45.7816 106.338 47.0776C106.098 47.1016 105.798 47.1136 105.438 47.1136C105.078 47.1136 104.706 47.0776 104.322 47.0056L104.214 44.5576C102.99 44.4856 101.718 44.4496 100.398 44.4496C99.0783 44.4496 97.9863 44.4856 97.1223 44.5576C96.9783 46.0696 96.9063 48.5416 96.9063 51.9736C97.2903 51.9976 98.0703 52.0096 99.2463 52.0096C100.422 52.0096 101.778 51.9616 103.314 51.8656L103.422 50.4976Z" fill="#016FB9"/>
<path d="M164.523 63.02C164.571 63.404 164.595 63.74 164.595 64.028C164.595 64.292 164.559 64.628 164.487 65.036C163.647 65.012 162.675 65 161.571 65C160.467 65 159.507 65.012 158.691 65.036C158.619 64.676 158.583 64.364 158.583 64.1C158.583 63.812 158.607 63.452 158.655 63.02L159.915 62.912C160.107 60.32 160.203 57.02 160.203 53.012C160.203 48.98 160.095 45.968 159.879 43.976L158.655 43.868C158.607 43.484 158.583 43.16 158.583 42.896C158.583 42.608 158.619 42.26 158.691 41.852C159.531 41.876 160.503 41.888 161.607 41.888C162.711 41.888 163.671 41.876 164.487 41.852C164.559 42.212 164.595 42.536 164.595 42.824C164.595 43.088 164.571 43.436 164.523 43.868L163.155 43.976C162.987 46.088 162.903 48.788 162.903 52.076C164.199 52.22 165.759 52.292 167.583 52.292C169.407 52.292 171.147 52.196 172.803 52.004C172.755 48.188 172.647 45.512 172.479 43.976L171.255 43.868C171.207 43.484 171.183 43.16 171.183 42.896C171.183 42.608 171.219 42.26 171.291 41.852C172.131 41.876 173.103 41.888 174.207 41.888C175.311 41.888 176.271 41.876 177.087 41.852C177.159 42.212 177.195 42.536 177.195 42.824C177.195 43.088 177.171 43.436 177.123 43.868L175.755 43.976C175.587 45.92 175.503 48.932 175.503 53.012C175.503 57.092 175.611 60.392 175.827 62.912L177.123 63.02C177.171 63.404 177.195 63.74 177.195 64.028C177.195 64.292 177.159 64.628 177.087 65.036C176.247 65.012 175.275 65 174.171 65C173.067 65 172.107 65.012 171.291 65.036C171.219 64.676 171.183 64.364 171.183 64.1C171.183 63.812 171.207 63.452 171.255 63.02L172.515 62.912C172.659 60.824 172.755 58.148 172.803 54.884C171.267 54.716 169.527 54.632 167.583 54.632C165.639 54.632 164.079 54.716 162.903 54.884C162.951 58.292 163.059 60.968 163.227 62.912L164.523 63.02ZM188.624 43.976C188.456 45.92 188.372 48.932 188.372 53.012C188.372 57.092 188.48 60.392 188.696 62.912L189.992 63.02C190.04 63.404 190.064 63.74 190.064 64.028C190.064 64.292 190.028 64.628 189.956 65.036C189.116 65.012 188.144 65 187.04 65C185.936 65 184.976 65.012 184.16 65.036C184.088 64.676 184.052 64.364 184.052 64.1C184.052 63.812 184.076 63.452 184.124 63.02L185.384 62.912C185.576 60.32 185.672 57.02 185.672 53.012C185.672 48.98 185.564 45.968 185.348 43.976L184.124 43.868C184.076 43.484 184.052 43.16 184.052 42.896C184.052 42.608 184.088 42.26 184.16 41.852C185 41.876 185.972 41.888 187.076 41.888C188.18 41.888 189.14 41.876 189.956 41.852C190.028 42.212 190.064 42.536 190.064 42.824C190.064 43.088 190.04 43.436 189.992 43.868L188.624 43.976ZM200.121 44.048C200.049 43.76 200.013 43.388 200.013 42.932C200.013 42.476 200.025 42.176 200.049 42.032C202.161 41.768 203.733 41.636 204.765 41.636C205.797 41.636 206.673 41.756 207.393 41.996C207.969 46.508 209.973 53.48 213.405 62.912L214.737 63.02C214.785 63.548 214.809 63.92 214.809 64.136C214.809 64.328 214.773 64.628 214.701 65.036C214.029 65.012 212.985 65 211.569 65C210.153 65 209.169 65.012 208.617 65.036C208.545 64.676 208.509 64.34 208.509 64.028C208.509 63.692 208.533 63.356 208.581 63.02L209.841 62.912C209.721 62.336 209.529 61.508 209.265 60.428C209.001 59.324 208.857 58.712 208.833 58.592C207.465 58.52 205.977 58.484 204.369 58.484C202.785 58.484 201.297 58.532 199.905 58.628L198.897 62.912L200.265 63.02C200.313 63.548 200.337 63.92 200.337 64.136C200.337 64.328 200.301 64.628 200.229 65.036C199.653 65.012 198.705 65 197.385 65C196.089 65 195.177 65.012 194.649 65.036C194.577 64.676 194.541 64.34 194.541 64.028C194.541 63.692 194.565 63.356 194.613 63.02L195.873 62.912C198.753 55.016 200.649 48.764 201.561 44.156L200.121 44.048ZM200.553 56.108C201.369 56.132 202.593 56.144 204.225 56.144C205.857 56.144 207.177 56.108 208.185 56.036C207.057 51.764 205.869 47.816 204.621 44.192H204.405C202.989 47.624 201.705 51.596 200.553 56.108Z" fill="#016FB9"/>
</svg>
